<?xml version="1.0" encoding="UTF-8"?>
<svg width="700pt" height="700pt" version="1.1" viewBox="0 0 700 700" xmlns="http://www.w3.org/2000/svg">
 <path d="m667.02 528.25-41.871-41.195c-50.02-41.195-43.945-99.984-44.57-106.05-0.67578-6.0195-0.67578-30.352 1.3477-38.445 2.0273-8.0977-0.67188-16.918-0.67188-16.918 14.891-60.809 62.832-43.945 62.832-43.945 19.562 2.0234 20.289-16.863 20.289-16.863 13.488-6.7461 10.117-20.91 10.117-20.91l-23.711-25.008c-9.4414-24.957-36.422-31.078-36.422-31.078 3.9961-24.957-8.8203-40.523-8.8203-40.523-2.0234 7.418-30.352 37.305-32.43 37.824-33.102 8.0938-22.312 13.543-43.219 28.383-20.91 14.84-65.531 33.102-85.094 22.312-19.562-10.848-182.33-25.012-252.53-25.012-20.805 0-37.047 4.3047-49.602 10.324-11.52-8.8203-26.359-27.863-37.309-53.754-16.137-38.137-18.418-76.426-6.0195-102.42 6.6406-14.008 14.215-21.949 22.57-23.609 12.402-2.4375 27.758 8.3555 32.168 12.348 8.3008 7.6289 21.223 7.1094 28.898-1.1953 7.6797-8.3008 7.2109-21.273-1.0898-28.953-3.2656-3.0039-32.734-29.156-67.656-22.461-21.895 4.2031-39.379 19.77-51.934 46.281-17.59 36.941-15.672 86.492 5.2891 135.99 9.4414 22.312 24.488 47.422 42.91 64.34-4.8242 6.7422-6.7461 11.723-6.7461 11.723-6.0703 14.168-22.934 45.922-16.859 74.977 6.0703 29.055-12.141 42.547-15.516 45.918-3.4258 3.4258-38.551 24.336-38.551 24.336l-29.055 102.68c-4.7227 19.613 21.637 31.078 21.637 31.078 9.4414-1.2969 10.117-32.375 10.117-32.375l22.984-54.117 86.441-31.703s0 36.477-1.3477 43.219c-1.3516 6.75-4.7227 18.215-4.7227 18.215 3.3711 23.609 61.484 78.348 61.484 78.348h43.895v-14.164c-3.3711-15.566-25.684-8.0938-25.684-8.0938l-32.43-49.293c34.453-27.031 48.617-72.277 48.617-72.277 16.188 13.488 93.859-11.52 93.859-11.52l46.648 4.7227-13.492 108.7c-4.0469 26.359 2.0234 35.801 2.0234 35.801h20.91c14.891 0 25.008 2.0234 25.008-13.543 0-15.516-20.91-12.816-20.91-12.816l51.262-101.28c48.668-29.73 79.695 13.488 79.695 13.488l2.75 15.566c18.887 27.656 122.92 98.582 122.92 98.582h51.316v-15.566c-8.8203-16.184-29.73-10.062-29.73-10.062z"/>
</svg>
